<svg xmlns="http://www.w3.org/2000/svg" viewBox="0 0 1000 1000">
<g transform="translate(15, 35) scale(2.7)">
<path fill-rule="evenodd" d="M274.958,311.501 C274.958,287.947 255.863,268.853 232.309,268.853 C208.755,268.853 189.661,287.947 189.661,311.501 L189.661,343.592 L101.016,343.592 L101.016,216.833 C119.742,206.859 131.504,193.368 138.895,179.609 C139.597,178.302 140.261,176.992 140.887,175.683 C140.922,175.609 140.956,175.535 140.991,175.462 C141.267,174.879 141.536,174.298 141.798,173.716 C141.842,173.617 141.887,173.518 141.931,173.419 C150.811,153.508 151.356,134.055 151.380,124.889 L219.143,195.298 L222.125,137.515 L272.508,161.375 L246.825,77.218 L295.491,87.083 C290.861,66.699 280.603,48.429 266.861,33.983 C320.757,38.952 362.961,84.279 362.961,139.471 L362.961,343.592 L274.958,343.592 L274.958,311.501 ZM118.754,98.948 C114.012,218.897 8.301,212.039 8.301,212.039 C7.566,212.039 6.898,212.173 6.283,212.397 L6.283,86.497 C6.283,57.241 29.1000,33.524 59.256,33.524 L134.395,33.524 L178.530,26.439 L131.843,64.279 L192.476,89.961 L118.754,98.948 ZM68.826,71.019 C54.164,71.019 42.278,82.904 42.278,97.566 C42.278,112.228 54.164,124.114 68.826,124.114 C83.487,124.114 95.373,112.228 95.373,97.566 C95.373,82.904 83.487,71.019 68.826,71.019 ZM68.828,108.401 C62.845,108.401 57.996,103.551 57.996,97.569 C57.996,91.586 62.845,86.736 68.828,86.736 C74.811,86.736 79.661,91.586 79.661,97.569 C79.661,103.551 74.811,108.401 68.828,108.401 ZM6.283,290.619 L6.283,234.927 C6.629,235.031 6.985,235.100 7.361,235.100 C30.946,235.100 47.876,232.923 64.135,229.178 L64.135,287.767 C64.135,290.884 66.662,293.410 69.778,293.410 L83.735,293.410 L83.735,343.592 L59.256,343.592 C29.1000,343.592 6.283,319.875 6.283,290.619 Z"/>
</g>
</svg>