<svg xmlns="http://www.w3.org/2000/svg" viewBox="0 0 1000 1000">
<g transform="translate(10, 380) scale(2.65)">
<path fill-rule="evenodd" d="M365.522,77.981 L347.351,77.981 L338.427,63.429 L332.879,68.816 L332.879,77.981 L316.880,77.981 L316.880,19.611 L332.879,19.611 L332.879,51.771 L346.467,35.530 L365.120,35.530 L349.442,52.655 L365.522,77.981 ZM296.740,51.449 C295.265,53.165 294.529,55.710 294.529,59.087 L294.529,77.981 L278.529,77.981 L278.529,35.530 L291.634,35.530 L292.679,41.962 C293.644,39.497 295.172,37.634 297.262,36.374 C299.353,35.115 301.711,34.485 304.337,34.485 C305.570,34.485 306.669,34.633 307.634,34.927 C308.599,35.222 309.081,35.397 309.081,35.449 L309.081,48.876 L303.935,48.876 C300.611,48.876 298.213,49.734 296.740,51.449 ZM84.764,48.394 L84.764,64.956 C84.764,65.868 84.978,66.618 85.408,67.208 C85.836,67.798 86.479,68.092 87.337,68.092 L90.232,68.092 L90.232,77.338 C90.071,77.446 89.655,77.619 88.985,77.861 C88.315,78.102 87.364,78.343 86.131,78.584 C84.898,78.825 83.478,78.946 81.870,78.946 C78.761,78.946 76.202,78.476 74.192,77.539 C72.182,76.602 70.801,75.302 70.051,73.640 C68.014,75.248 65.736,76.534 63.217,77.499 C60.697,78.464 57.750,78.946 54.373,78.946 C44.404,78.946 39.419,74.980 39.419,67.047 C39.419,62.920 40.530,59.771 42.755,57.600 C44.979,55.429 48.182,53.941 52.363,53.137 C56.544,52.333 62.011,51.931 68.765,51.931 L68.765,49.841 C68.765,48.180 68.188,46.920 67.036,46.062 C65.883,45.206 64.396,44.776 62.574,44.776 C60.912,44.776 59.479,45.071 58.273,45.660 C57.067,46.251 56.464,47.188 56.464,48.474 L56.464,48.796 L40.705,48.796 C40.651,48.528 40.625,48.153 40.625,47.670 C40.625,43.650 42.540,40.462 46.373,38.103 C50.205,35.745 55.686,34.565 62.815,34.565 C69.300,34.565 74.580,35.650 78.654,37.821 C82.727,39.992 84.764,43.517 84.764,48.394 ZM68.765,59.489 C64.208,59.489 60.845,59.985 58.675,60.977 C56.504,61.969 55.418,63.296 55.418,64.956 C55.418,67.637 57.240,68.976 60.886,68.976 C62.976,68.976 64.811,68.414 66.393,67.288 C67.973,66.162 68.765,64.769 68.765,63.107 L68.765,59.489 ZM24.143,78.946 C19.425,78.946 15.794,78.088 13.248,76.373 C10.702,74.658 9.429,71.738 9.429,67.610 L9.429,46.384 L3.480,46.384 L3.480,35.530 L10.073,35.530 L13.530,22.666 L25.429,22.666 L25.429,35.530 L34.434,35.530 L34.434,46.384 L25.429,46.384 L25.429,62.544 C25.429,64.474 25.751,65.881 26.394,66.765 C27.037,67.650 28.215,68.092 29.931,68.092 L34.434,68.092 L34.434,77.499 C33.147,77.928 31.485,78.275 29.449,78.544 C27.411,78.812 25.643,78.946 24.143,78.946 ZM111.296,61.097 C111.296,62.920 111.765,64.381 112.703,65.479 C113.641,66.578 114.967,67.127 116.683,67.127 C118.666,67.127 120.274,66.484 121.507,65.198 C122.740,63.911 123.357,62.331 123.357,60.454 L123.357,35.530 L139.356,35.530 L139.356,77.981 L126.251,77.981 L125.206,71.549 C123.544,73.854 121.359,75.663 118.653,76.976 C115.946,78.289 113.092,78.946 110.090,78.946 C105.158,78.946 101.460,77.579 98.995,74.846 C96.529,72.112 95.297,68.172 95.297,63.027 L95.297,35.530 L111.296,35.530 L111.296,61.097 ZM167.898,60.615 L168.461,60.615 L175.134,35.530 L191.053,35.530 L197.485,60.615 L198.048,60.615 L204.561,35.530 L220.158,35.530 L204.561,77.981 L188.963,77.981 L182.370,54.343 L182.049,54.343 L175.375,77.981 L159.778,77.981 L144.261,35.530 L161.466,35.530 L167.898,60.615 ZM245.712,30.279 C255.924,30.279 264.735,36.269 268.830,44.926 L242.981,40.076 L270.863,58.320 L229.221,65.691 L265.816,71.622 C261.136,77.577 253.873,81.406 245.712,81.406 C231.593,81.406 220.148,69.961 220.148,55.842 C220.148,41.724 231.593,30.279 245.712,30.279 Z"/>
</g>
</svg>