<svg 
 xmlns="http://www.w3.org/2000/svg"
 xmlns:xlink="http://www.w3.org/1999/xlink"
 width="130.175mm" height="130.175mm">
<path fill-rule="evenodd" fill="black"
 d="M351.742,339.308 L334.968,339.308 L326.729,325.873 L321.607,330.846 L321.607,339.308 L306.837,339.308 L306.837,285.421 L321.607,285.421 L321.607,315.111 L334.151,300.117 L351.371,300.117 L336.898,315.927 L351.742,339.308 ZM288.243,314.814 C286.882,316.398 286.202,318.748 286.202,321.865 L286.202,339.308 L271.431,339.308 L271.431,300.117 L283.530,300.117 L284.495,306.055 C285.386,303.780 286.796,302.060 288.726,300.897 C290.656,299.735 292.832,299.152 295.258,299.152 C296.395,299.152 297.410,299.289 298.301,299.561 C299.191,299.833 299.637,299.994 299.637,300.043 L299.637,312.439 L294.886,312.439 C291.818,312.439 289.604,313.231 288.243,314.814 ZM241.354,205.448 C241.354,190.656 229.362,178.665 214.571,178.665 C199.779,178.665 187.788,190.656 187.788,205.448 L187.788,225.601 L132.119,225.601 L132.119,145.997 C143.879,139.733 151.265,131.261 155.907,122.620 C156.348,121.799 156.765,120.977 157.157,120.155 C157.180,120.108 157.201,120.062 157.223,120.016 C157.396,119.650 157.565,119.285 157.730,118.919 C157.758,118.857 157.786,118.795 157.814,118.733 C163.390,106.229 163.732,94.013 163.747,88.256 L206.302,132.473 L208.175,96.186 L239.816,111.170 L223.687,58.319 L254.248,64.514 C251.341,51.713 244.899,40.240 236.269,31.168 C270.115,34.288 296.620,62.753 296.620,97.414 L296.620,225.601 L241.354,225.601 L241.354,205.448 ZM143.258,71.965 C140.280,147.293 73.894,142.986 73.894,142.986 C73.432,142.986 73.013,143.070 72.627,143.211 L72.627,64.146 C72.627,45.774 87.521,30.879 105.894,30.879 L153.081,30.879 L180.797,26.430 L151.478,50.194 L189.556,66.322 L143.258,71.965 ZM111.903,54.426 C102.696,54.426 95.231,61.890 95.231,71.098 C95.231,80.305 102.696,87.770 111.903,87.770 C121.111,87.770 128.575,80.305 128.575,71.098 C128.575,61.890 121.111,54.426 111.903,54.426 ZM111.905,77.902 C108.148,77.902 105.102,74.856 105.102,71.099 C105.102,67.342 108.148,64.296 111.905,64.296 C115.662,64.296 118.708,67.342 118.708,71.099 C118.708,74.856 115.662,77.902 111.905,77.902 ZM92.550,311.993 L92.550,327.283 C92.550,328.125 92.747,328.818 93.144,329.362 C93.539,329.907 94.133,330.178 94.925,330.178 L97.597,330.178 L97.597,338.714 C97.449,338.814 97.065,338.974 96.447,339.196 C95.828,339.419 94.950,339.642 93.812,339.864 C92.673,340.087 91.363,340.198 89.878,340.198 C87.008,340.198 84.645,339.765 82.790,338.900 C80.934,338.034 79.659,336.834 78.967,335.300 C77.086,336.784 74.983,337.972 72.658,338.862 C70.332,339.753 67.611,340.198 64.493,340.198 C55.289,340.198 50.688,336.537 50.688,329.213 C50.688,325.403 51.714,322.496 53.768,320.492 C55.821,318.488 58.778,317.115 62.638,316.372 C66.497,315.630 71.545,315.259 77.780,315.259 L77.780,313.329 C77.780,311.796 77.247,310.633 76.184,309.841 C75.119,309.050 73.746,308.653 72.064,308.653 C70.530,308.653 69.207,308.926 68.093,309.470 C66.980,310.015 66.423,310.880 66.423,312.067 L66.423,312.364 L51.875,312.364 C51.825,312.117 51.801,311.770 51.801,311.325 C51.801,307.614 53.570,304.670 57.108,302.492 C60.645,300.316 65.705,299.227 72.287,299.227 C78.274,299.227 83.148,300.229 86.909,302.233 C90.669,304.237 92.550,307.491 92.550,311.993 ZM77.780,322.236 C73.573,322.236 70.468,322.694 68.464,323.609 C66.460,324.526 65.458,325.750 65.458,327.283 C65.458,329.758 67.140,330.995 70.506,330.995 C72.435,330.995 74.130,330.475 75.590,329.436 C77.049,328.397 77.780,327.111 77.780,325.576 L77.780,322.236 ZM36.585,340.198 C32.230,340.198 28.877,339.406 26.527,337.823 C24.177,336.240 23.002,333.544 23.002,329.733 L23.002,310.138 L17.509,310.138 L17.509,300.117 L23.596,300.117 L26.787,288.241 L37.772,288.241 L37.772,300.117 L46.086,300.117 L46.086,310.138 L37.772,310.138 L37.772,325.057 C37.772,326.838 38.069,328.137 38.663,328.953 C39.257,329.770 40.345,330.178 41.929,330.178 L46.086,330.178 L46.086,338.862 C44.898,339.259 43.364,339.579 41.484,339.827 C39.603,340.074 37.970,340.198 36.585,340.198 ZM72.627,192.334 L72.627,157.360 C72.844,157.425 73.068,157.469 73.304,157.469 C88.115,157.469 98.747,156.101 108.958,153.749 L108.958,190.543 C108.958,192.501 110.544,194.087 112.502,194.087 L121.267,194.087 L121.267,225.601 L105.894,225.601 C87.521,225.601 72.627,210.707 72.627,192.334 ZM117.044,323.721 C117.044,325.403 117.477,326.752 118.343,327.766 C119.208,328.781 120.433,329.287 122.017,329.287 C123.847,329.287 125.332,328.694 126.471,327.506 C127.609,326.319 128.178,324.860 128.178,323.127 L128.178,300.117 L142.949,300.117 L142.949,339.308 L130.850,339.308 L129.885,333.370 C128.351,335.498 126.334,337.168 123.836,338.380 C121.337,339.592 118.702,340.198 115.931,340.198 C111.378,340.198 107.963,338.937 105.688,336.413 C103.411,333.889 102.274,330.252 102.274,325.502 L102.274,300.117 L117.044,300.117 L117.044,323.721 ZM169.298,323.275 L169.818,323.275 L175.979,300.117 L190.675,300.117 L196.613,323.275 L197.133,323.275 L203.145,300.117 L217.544,300.117 L203.145,339.308 L188.745,339.308 L182.659,317.486 L182.362,317.486 L176.201,339.308 L161.802,339.308 L147.476,300.117 L163.360,300.117 L169.298,323.275 ZM241.135,295.270 C250.563,295.270 258.697,300.800 262.477,308.792 L238.614,304.314 L264.354,321.157 L225.911,327.962 L259.695,333.437 C255.374,338.934 248.670,342.470 241.135,342.470 C228.101,342.470 217.535,331.904 217.535,318.870 C217.535,305.836 228.101,295.270 241.135,295.270 Z"/>
</svg>